<svg xmlns="http://www.w3.org/2000/svg" xmlns:xlink="http://www.w3.org/1999/xlink" width="500" zoomAndPan="magnify" viewBox="0 0 375 374.999991" height="500" preserveAspectRatio="xMidYMid meet" version="1.0"><defs><g/><clipPath id="4790b8eb74"><path d="M 56.488281 151.464844 L 282.859375 151.464844 L 282.859375 223.535156 L 56.488281 223.535156 Z M 56.488281 151.464844 " clip-rule="nonzero"/></clipPath><clipPath id="c8880c34b4"><path d="M 56.488281 151.464844 L 282.847656 151.464844 L 282.847656 223.464844 L 56.488281 223.464844 Z M 56.488281 151.464844 " clip-rule="nonzero"/></clipPath><clipPath id="40f757714c"><path d="M 63.558594 158.238281 L 187.332031 158.238281 L 187.332031 216.761719 L 63.558594 216.761719 Z M 63.558594 158.238281 " clip-rule="nonzero"/></clipPath></defs><g clip-path="url(#4790b8eb74)"><path fill="#ffffff" d="M 56.488281 151.464844 L 282.835938 151.464844 L 282.835938 223.535156 L 56.488281 223.535156 Z M 56.488281 151.464844 " fill-opacity="1" fill-rule="nonzero"/></g><g clip-path="url(#c8880c34b4)"><path stroke-linecap="butt" transform="matrix(0.75, 0, 0, 0.75, 56.489269, 151.465946)" fill="none" stroke-linejoin="miter" d="M -0.00131672 -0.00146974 L 301.811203 -0.00146974 L 301.811203 96.092287 L -0.00131672 96.092287 Z M -0.00131672 -0.00146974 " stroke="#d9d9d9" stroke-width="6" stroke-opacity="1" stroke-miterlimit="4"/></g><g clip-path="url(#40f757714c)"><path fill="#000000" d="M 63.558594 158.238281 L 187.238281 158.238281 L 187.238281 216.761719 L 63.558594 216.761719 Z M 63.558594 158.238281 " fill-opacity="1" fill-rule="nonzero"/></g><g fill="#ffffff" fill-opacity="1"><g transform="translate(82.333321, 196.618259)"><g><path d="M 2.859375 0 L 2.859375 -19.671875 L 5.171875 -19.671875 L 12.890625 -8 L 20.5625 -19.671875 L 22.875 -19.671875 L 22.875 0 L 20.390625 0 L 20.390625 -15.03125 L 13.875 -5.21875 L 11.859375 -5.21875 L 5.34375 -15.0625 L 5.34375 0 Z M 2.859375 0 "/></g></g></g><g fill="#ffffff" fill-opacity="1"><g transform="translate(110.187637, 196.618259)"><g><path d="M 1.234375 0 L 1.234375 -2.359375 L 4.046875 -2.359375 C 5.617188 -2.359375 6.703125 -2.738281 7.296875 -3.5 C 7.898438 -4.269531 8.203125 -5.3125 8.203125 -6.625 L 8.203125 -19.671875 L 10.671875 -19.671875 L 10.671875 -6.484375 C 10.671875 -4.535156 10.128906 -2.96875 9.046875 -1.78125 C 7.972656 -0.59375 6.304688 0 4.046875 0 Z M 1.234375 0 "/></g></g></g><g fill="#ffffff" fill-opacity="1"><g transform="translate(125.799912, 196.618259)"><g><path d="M 11.578125 0.359375 C 10.128906 0.359375 8.796875 0.109375 7.578125 -0.390625 C 6.367188 -0.898438 5.316406 -1.609375 4.421875 -2.515625 C 3.535156 -3.421875 2.847656 -4.492188 2.359375 -5.734375 C 1.867188 -6.984375 1.625 -8.347656 1.625 -9.828125 C 1.625 -11.304688 1.867188 -12.664062 2.359375 -13.90625 C 2.847656 -15.15625 3.535156 -16.234375 4.421875 -17.140625 C 5.316406 -18.054688 6.367188 -18.765625 7.578125 -19.265625 C 8.796875 -19.773438 10.128906 -20.03125 11.578125 -20.03125 C 13.128906 -20.03125 14.554688 -19.742188 15.859375 -19.171875 C 17.160156 -18.597656 18.273438 -17.78125 19.203125 -16.71875 C 20.128906 -15.664062 20.804688 -14.421875 21.234375 -12.984375 L 18.59375 -12.984375 C 18.09375 -14.398438 17.21875 -15.515625 15.96875 -16.328125 C 14.726562 -17.148438 13.289062 -17.5625 11.65625 -17.5625 C 10.195312 -17.5625 8.90625 -17.234375 7.78125 -16.578125 C 6.65625 -15.921875 5.769531 -15.007812 5.125 -13.84375 C 4.476562 -12.6875 4.15625 -11.347656 4.15625 -9.828125 C 4.15625 -8.316406 4.476562 -6.976562 5.125 -5.8125 C 5.769531 -4.65625 6.65625 -3.75 7.78125 -3.09375 C 8.90625 -2.4375 10.195312 -2.109375 11.65625 -2.109375 C 13.320312 -2.109375 14.800781 -2.535156 16.09375 -3.390625 C 17.382812 -4.253906 18.285156 -5.425781 18.796875 -6.90625 L 21.40625 -6.90625 C 21.007812 -5.445312 20.335938 -4.171875 19.390625 -3.078125 C 18.453125 -1.992188 17.3125 -1.148438 15.96875 -0.546875 C 14.632812 0.0546875 13.171875 0.359375 11.578125 0.359375 Z M 11.578125 0.359375 "/></g></g></g><g fill="#ffffff" fill-opacity="1"><g transform="translate(150.846421, 196.618259)"><g><path d="M 7.609375 0 L 7.609375 -17.3125 L 0.953125 -17.3125 L 0.953125 -19.671875 L 16.71875 -19.671875 L 16.71875 -17.3125 L 10.078125 -17.3125 L 10.078125 0 Z M 7.609375 0 "/></g></g></g><g fill="#000000" fill-opacity="1"><g transform="translate(202.102903, 196.618259)"><g><path d="M 3.828125 0.359375 C 2.941406 0.359375 2.21875 0.0820312 1.65625 -0.46875 C 1.09375 -1.019531 0.8125 -1.71875 0.8125 -2.5625 C 0.8125 -3.40625 1.09375 -4.101562 1.65625 -4.65625 C 2.21875 -5.207031 2.941406 -5.484375 3.828125 -5.484375 C 4.703125 -5.484375 5.414062 -5.207031 5.96875 -4.65625 C 6.519531 -4.101562 6.796875 -3.40625 6.796875 -2.5625 C 6.796875 -1.71875 6.519531 -1.019531 5.96875 -0.46875 C 5.414062 0.0820312 4.703125 0.359375 3.828125 0.359375 Z M 3.828125 0.359375 "/></g></g></g><g fill="#000000" fill-opacity="1"><g transform="translate(209.712067, 196.618259)"><g><path d="M 8.453125 0.421875 C 6.972656 0.421875 5.660156 0.0859375 4.515625 -0.578125 C 3.378906 -1.242188 2.488281 -2.164062 1.84375 -3.34375 C 1.195312 -4.519531 0.875 -5.882812 0.875 -7.4375 C 0.875 -8.976562 1.195312 -10.335938 1.84375 -11.515625 C 2.488281 -12.691406 3.378906 -13.613281 4.515625 -14.28125 C 5.660156 -14.945312 6.972656 -15.28125 8.453125 -15.28125 C 10.046875 -15.28125 11.453125 -14.890625 12.671875 -14.109375 L 12.671875 -20.796875 L 18.0625 -20.796875 L 18.0625 0 L 14.1875 0 L 13.65625 -1.484375 C 13 -0.890625 12.226562 -0.421875 11.34375 -0.078125 C 10.46875 0.253906 9.503906 0.421875 8.453125 0.421875 Z M 6.15625 -7.4375 C 6.15625 -6.445312 6.46875 -5.632812 7.09375 -5 C 7.71875 -4.363281 8.53125 -4.046875 9.53125 -4.046875 C 10.519531 -4.046875 11.320312 -4.363281 11.9375 -5 C 12.550781 -5.632812 12.859375 -6.445312 12.859375 -7.4375 C 12.859375 -8.4375 12.550781 -9.25 11.9375 -9.875 C 11.320312 -10.5 10.519531 -10.8125 9.53125 -10.8125 C 8.53125 -10.8125 7.71875 -10.5 7.09375 -9.875 C 6.46875 -9.25 6.15625 -8.4375 6.15625 -7.4375 Z M 6.15625 -7.4375 "/></g></g></g><g fill="#000000" fill-opacity="1"><g transform="translate(229.647502, 196.618259)"><g><path d="M 9.265625 0.421875 C 7.617188 0.421875 6.160156 0.0859375 4.890625 -0.578125 C 3.628906 -1.242188 2.644531 -2.164062 1.9375 -3.34375 C 1.226562 -4.519531 0.875 -5.882812 0.875 -7.4375 C 0.875 -9 1.226562 -10.363281 1.9375 -11.53125 C 2.644531 -12.695312 3.632812 -13.613281 4.90625 -14.28125 C 6.1875 -14.945312 7.648438 -15.28125 9.296875 -15.28125 C 11.078125 -15.28125 12.609375 -14.898438 13.890625 -14.140625 C 15.171875 -13.378906 16.144531 -12.3125 16.8125 -10.9375 C 17.476562 -9.5625 17.765625 -7.945312 17.671875 -6.09375 L 6.203125 -6.09375 C 6.410156 -5.289062 6.804688 -4.679688 7.390625 -4.265625 C 7.972656 -3.859375 8.640625 -3.65625 9.390625 -3.65625 C 9.960938 -3.65625 10.492188 -3.753906 10.984375 -3.953125 C 11.472656 -4.160156 11.867188 -4.441406 12.171875 -4.796875 L 17.390625 -4.796875 C 16.734375 -3.148438 15.695312 -1.867188 14.28125 -0.953125 C 12.875 -0.0351562 11.203125 0.421875 9.265625 0.421875 Z M 6.234375 -9.015625 L 12.53125 -9.015625 C 12.300781 -9.710938 11.921875 -10.253906 11.390625 -10.640625 C 10.859375 -11.035156 10.179688 -11.234375 9.359375 -11.234375 C 8.609375 -11.234375 7.957031 -11.039062 7.40625 -10.65625 C 6.851562 -10.269531 6.460938 -9.722656 6.234375 -9.015625 Z M 6.234375 -9.015625 "/></g></g></g><g fill="#000000" fill-opacity="1"><g transform="translate(248.150961, 196.618259)"><g><path d="M 6.125 0 L 0.140625 -14.859375 L 6.046875 -14.859375 L 7.609375 -9.9375 L 8.875 -6.125 L 10.140625 -9.9375 L 11.75 -14.859375 L 17.609375 -14.859375 L 11.609375 0 Z M 6.125 0 "/></g></g></g></svg>